<?xml version="1.0" standalone="no"?>
<!DOCTYPE svg PUBLIC "-//W3C//DTD SVG 20010904//EN"
 "http://www.w3.org/TR/2001/REC-SVG-20010904/DTD/svg10.dtd">
<svg version="1.0" xmlns="http://www.w3.org/2000/svg"
 width="512.000000pt" height="512.000000pt" viewBox="0 0 512.000000 512.000000"
 preserveAspectRatio="xMidYMid meet">

<g transform="translate(0.000000,512.000000) scale(0.100000,-0.100000)"
fill="#000000" stroke="none">
<path d="M2455 5043 c-89 -2 -145 -8 -155 -16 -27 -22 -59 -37 -77 -37 -21 0
-115 -48 -125 -64 -8 -13 -203 -14 -256 -1 -30 7 -33 5 -46 -26 -9 -22 -32
-45 -63 -64 -76 -47 -189 -143 -219 -186 -14 -21 -31 -39 -35 -39 -5 0 -21
-19 -36 -42 -32 -48 -50 -74 -77 -112 -10 -14 -19 -45 -20 -70 -1 -30 -8 -52
-23 -68 -11 -13 -24 -32 -27 -44 -3 -11 -20 -30 -36 -43 -17 -12 -28 -26 -26
-30 3 -5 -8 -34 -24 -66 -17 -33 -30 -74 -30 -95 0 -19 -14 -71 -31 -115 -62
-160 -61 -154 -54 -322 7 -175 16 -207 63 -216 16 -3 37 -13 46 -22 22 -23 80
-10 116 26 16 17 39 29 54 29 29 0 71 17 105 42 13 10 32 18 42 18 11 0 19 6
19 14 0 32 198 38 276 9 16 -7 66 -17 112 -24 74 -10 90 -10 144 6 53 17 66
17 121 6 34 -8 76 -15 94 -17 41 -5 183 -74 224 -108 17 -14 38 -26 48 -26 18
0 41 -37 41 -65 0 -8 7 -15 15 -15 8 0 15 -9 15 -20 0 -11 5 -20 10 -20 6 0
10 -22 10 -50 0 -27 -4 -50 -10 -50 -5 0 -10 -13 -10 -29 0 -49 12 -91 26 -91
7 0 16 -9 19 -20 3 -11 11 -20 16 -20 5 0 9 -9 9 -20 0 -13 7 -20 18 -20 10 0
24 -9 32 -20 8 -11 19 -20 26 -20 12 0 34 -42 34 -65 0 -8 7 -15 15 -15 8 0
15 -9 15 -20 0 -11 5 -20 10 -20 6 0 10 -9 10 -20 0 -11 -4 -20 -10 -20 -5 0
-10 -7 -10 -15 0 -8 -5 -15 -11 -15 -17 0 -111 -49 -134 -70 -11 -9 -37 -20
-57 -24 -30 -5 -38 -12 -43 -35 -6 -27 -10 -29 -48 -27 -23 0 -45 6 -49 11 -5
6 -11 5 -17 -4 -6 -9 -10 -10 -16 -2 -5 9 -10 9 -21 1 -9 -8 -39 -10 -96 -5
-46 5 -112 8 -148 7 -38 0 -78 6 -100 15 -24 11 -74 17 -165 19 -229 7 -233 6
-309 -32 -38 -19 -75 -34 -83 -34 -8 0 -27 -7 -43 -15 -15 -8 -70 -19 -120
-25 -114 -13 -123 -21 -128 -111 -4 -65 -3 -69 19 -78 39 -14 55 -42 68 -115
15 -87 50 -187 85 -246 15 -25 35 -63 45 -85 36 -79 220 -212 346 -250 28 -9
63 -27 80 -40 l29 -24 -26 -20 c-14 -11 -31 -34 -38 -51 -7 -16 -16 -30 -21
-30 -11 0 -79 -71 -79 -82 0 -5 -19 -29 -42 -54 -41 -44 -41 -46 -42 -122 -1
-87 18 -143 66 -194 15 -17 42 -59 58 -94 33 -67 46 -75 93 -53 13 6 29 23 35
37 26 55 37 72 52 77 9 3 52 -13 96 -35 43 -22 87 -40 96 -40 12 0 21 -13 28
-39 9 -34 26 -61 90 -138 6 -7 10 -17 10 -22 0 -22 24 -61 41 -66 10 -3 26
-20 37 -37 l20 -31 -23 -42 -22 -43 21 -11 c11 -6 32 -20 46 -31 18 -14 51
-23 114 -30 119 -13 177 -51 148 -97 -5 -8 -39 -11 -106 -10 -92 2 -99 1 -117
-22 -11 -13 -22 -35 -26 -50 -9 -38 -61 -105 -86 -111 -18 -5 -15 -9 25 -33
26 -15 54 -27 62 -27 9 0 16 -4 16 -9 0 -5 76 -10 173 -11 210 -1 232 6 322
100 138 145 239 241 261 246 13 4 24 9 24 13 0 3 24 43 54 88 55 84 97 126
197 194 66 44 109 92 109 120 0 26 15 53 62 112 21 27 45 73 54 103 16 55 52
150 81 213 10 23 15 59 14 109 -1 55 1 72 10 66 9 -5 10 1 6 25 -4 18 -3 30 1
27 4 -2 7 35 8 82 0 48 3 97 7 108 10 38 47 105 61 110 12 4 23 35 30 79 4 25
30 64 39 58 6 -4 8 7 5 28 -6 38 8 99 22 99 6 0 10 9 10 20 0 24 29 60 48 60
7 0 10 5 7 10 -3 6 -1 10 4 10 6 0 11 17 11 39 0 21 7 58 16 82 8 24 17 55 19
69 8 58 24 113 34 120 15 9 61 155 61 192 0 36 -33 103 -55 112 -9 3 -38 6
-63 6 -79 0 -80 3 -93 205 -6 83 -12 173 -15 201 -4 33 2 90 16 160 20 95 22
128 17 260 -4 83 -12 164 -18 180 -6 16 -13 47 -15 69 -3 22 -12 76 -21 120
-8 44 -19 105 -25 135 -5 30 -23 77 -39 104 -17 27 -33 61 -35 74 -3 14 -51
75 -108 136 -56 61 -105 119 -109 128 -3 9 -24 29 -47 43 -22 14 -46 38 -52
53 -22 53 -156 189 -193 197 -81 18 -132 54 -120 87 6 16 -35 63 -62 72 -11 4
-44 24 -73 46 -37 28 -64 40 -86 40 -18 0 -44 4 -57 9 -61 24 -221 31 -492 24z
m-827 -2690 c-2 -5 -11 -24 -20 -43 -9 -19 -37 -51 -61 -70 -46 -36 -64 -75
-45 -97 15 -19 37 -16 93 12 66 32 89 31 147 -6 35 -23 48 -37 48 -55 0 -13
-4 -24 -9 -24 -21 0 -41 -34 -41 -69 0 -31 5 -40 25 -49 14 -6 25 -18 25 -26
0 -19 64 -66 90 -66 11 0 32 8 46 17 18 12 56 18 129 21 85 4 107 8 121 23 9
11 22 19 29 19 7 0 26 13 43 30 38 36 47 26 43 -44 -2 -34 -9 -58 -22 -72 -10
-11 -19 -25 -19 -31 0 -6 -11 -18 -24 -26 -13 -9 -39 -30 -57 -46 -18 -17 -41
-31 -51 -31 -9 0 -19 -4 -22 -9 -8 -12 -128 -23 -235 -21 -84 1 -101 5 -166
35 -87 42 -121 67 -141 108 -9 18 -29 46 -45 62 -19 21 -35 55 -49 112 -21 78
-21 83 -5 117 12 24 16 49 12 71 -9 58 26 119 88 153 23 13 79 16 73 5z m972
-188 c8 -9 10 -27 6 -46 -3 -19 0 -38 8 -52 8 -12 22 -50 30 -83 13 -48 13
-68 5 -94 -8 -20 -10 -74 -7 -145 4 -90 10 -122 27 -155 19 -37 20 -46 9 -78
-7 -21 -20 -46 -30 -57 -29 -34 -49 -95 -47 -141 2 -25 -2 -49 -9 -56 -7 -7
-12 -20 -12 -30 0 -10 -7 -21 -15 -24 -8 -4 -15 -18 -15 -33 0 -15 -7 -36 -15
-48 -14 -20 -22 -21 -83 -16 -59 5 -69 3 -85 -15 -23 -25 -15 -56 19 -78 33
-22 30 -50 -7 -69 -16 -9 -29 -21 -27 -27 3 -7 30 -20 60 -30 40 -14 68 -32
97 -63 23 -25 41 -49 41 -54 0 -17 -71 -34 -115 -28 -65 9 -149 50 -174 86
-12 17 -31 31 -41 31 -12 0 -21 10 -25 31 -4 17 -22 45 -41 62 -127 117 -127
117 -120 169 5 35 2 56 -10 79 -30 60 2 178 49 179 6 0 28 14 47 30 30 25 33
31 22 47 -6 10 -17 29 -22 43 -6 14 -18 31 -27 37 -15 12 -14 15 7 33 13 11
28 20 34 20 6 0 26 14 44 30 18 17 38 30 43 30 22 0 137 133 167 193 29 57 83
208 96 267 12 58 85 92 116 55z m1182 -317 c-7 -7 -12 -8 -12 -2 0 14 12 26
19 19 2 -3 -1 -11 -7 -17z m45 -210 c-3 -7 -5 -2 -5 12 0 14 2 19 5 13 2 -7 2
-19 0 -25z m-1153 -824 c10 -4 16 -18 16 -35 0 -28 -2 -29 -44 -29 -54 0 -72
17 -50 48 15 22 47 28 78 16z"/>
<path d="M2560 3310 c0 -5 5 -10 10 -10 6 0 10 5 10 10 0 6 -4 10 -10 10 -5 0
-10 -4 -10 -10z"/>
<path d="M1070 2774 c0 -29 16 -64 30 -64 18 0 51 -34 71 -72 25 -48 65 -79
100 -76 16 1 29 3 29 4 0 1 -17 33 -39 71 -22 39 -49 73 -64 81 -18 9 -28 24
-33 47 -6 34 -8 35 -50 35 -41 0 -44 -2 -44 -26z"/>
<path d="M1147 2343 c-4 -3 -7 -26 -7 -50 0 -37 5 -49 32 -74 18 -16 37 -28
43 -26 5 2 11 31 13 65 l3 61 -37 16 c-42 17 -39 17 -47 8z"/>
<path d="M1934 416 c-9 -20 -9 -26 3 -30 22 -9 23 -8 23 24 0 36 -11 39 -26 6z"/>
</g>
</svg>
